<svg width="26" height="26" viewBox="0 0 26 26" fill="none" xmlns="http://www.w3.org/2000/svg">
<path d="M13 0C5.824 0 0 5.60967 0 12.5216C0 19.4335 5.824 25.0432 13 25.0432C20.176 25.0432 26 19.4335 26 12.5216C26 5.60967 20.176 0 13 0ZM13 5.00863C15.509 5.00863 17.55 6.97452 17.55 9.39118C17.55 11.8078 15.509 13.7737 13 13.7737C10.491 13.7737 8.45 11.8078 8.45 9.39118C8.45 6.97452 10.491 5.00863 13 5.00863ZM13 22.5388C10.361 22.5388 7.241 21.5121 5.018 18.9326C7.215 17.2798 9.984 16.278 13 16.278C16.016 16.278 18.785 17.2798 20.982 18.9326C18.759 21.5121 15.639 22.5388 13 22.5388Z" fill="white"/>
</svg>
